<svg width="20" height="20" viewBox="0 0 20 20" fill="none" xmlns="http://www.w3.org/2000/svg">
<path fill-rule="evenodd" clip-rule="evenodd" d="M11 11V14C11 14.552 10.552 15 10 15C9.448 15 9 14.552 9 14V12C9 11.448 8.552 11 8 11C7.448 11 7 10.552 7 10C7 9.448 7.448 9 8 9H9C10.105 9 11 9.895 11 11ZM18 17C18 17.552 17.552 18 17 18H3C2.448 18 2 17.552 2 17V7C2 6.448 2.448 6 3 6H17C17.552 6 18 6.448 18 7V17ZM18 2V1C18 0.448 17.552 0 17 0C16.448 0 16 0.448 16 1V2H11V1C11 0.448 10.552 0 10 0C9.448 0 9 0.448 9 1V2H4V1C4 0.448 3.552 0 3 0C2.448 0 2 0.448 2 1V2C0.895 2 0 2.895 0 4V18C0 19.104 0.895 20 2 20H18C19.105 20 20 19.104 20 18V4C20 2.895 19.105 2 18 2Z" fill="white"/>
</svg>
