<?xml version="1.0" encoding="UTF-8"?>
<svg width="20px" height="16px" viewBox="0 0 20 16" version="1.1" xmlns="http://www.w3.org/2000/svg" xmlns:xlink="http://www.w3.org/1999/xlink">
    <title>diamond [#767]</title>
    <g id="Icons" stroke="none" stroke-width="1" fill="none" fill-rule="evenodd">
        <path d="M10.723912,13.2461631 C10.327912,13.6969357 9.62391195,13.7445945 9.22391195,13.2977934 L3.03391195,6.95023923 L16.782912,6.95023923 L10.723912,13.2461631 Z M4.63591195,2.45045578 C4.81891195,2.1615244 5.13891195,1.98578264 5.48191195,1.98578264 L14.512912,1.98578264 C14.849912,1.98578264 15.163912,2.15358127 15.348912,2.43357662 L17.510912,4.9644566 L2.58891195,4.9644566 L4.63591195,2.45045578 Z M19.675912,4.39155831 L16.775912,0.814170882 C16.406912,0.251201504 15.776912,0 15.099912,0 L4.92991195,0 C4.24191195,0 3.60191195,0.2631162 3.23591195,0.841971839 L0.30591195,4.64673137 C-0.16708805,5.39537143 -0.0850880497,6.34159686 0.50691195,7.00186958 L8.49691195,15.3381851 C9.29691195,16.2298015 10.703912,16.2178868 11.495912,15.3183273 L19.505912,6.78442638 C20.094912,6.11521764 20.163912,5.13622679 19.675912,4.39155831 L19.675912,4.39155831 Z" id="diamond-[#767]" fill="#2C215A"></path>
    </g>
</svg>