<svg width="20" height="16" viewBox="0 0 20 16" fill="none" xmlns="http://www.w3.org/2000/svg">
<path fill-rule="evenodd" clip-rule="evenodd" d="M11.9933 13.349C11.4453 13.8148 10.7413 14.0717 10.0103 14.0717C9.28032 14.0717 8.57432 13.8158 8.00432 13.335C4.41032 10.3071 2.12232 8.70073 2.00332 5.40596C1.87832 1.91927 5.69832 0.644743 8.04032 3.50967C8.51432 4.08846 9.22632 4.42033 9.99432 4.42033C10.7693 4.42033 11.4863 4.08446 11.9613 3.49868C14.2523 0.67973 18.1743 1.88028 17.9953 5.50792C17.8353 8.73472 15.4593 10.4011 11.9933 13.349ZM10.3873 2.31012C10.2893 2.43108 10.1413 2.49205 9.99432 2.49205C9.85032 2.49205 9.70732 2.43307 9.61132 2.31612C6.06832 -2.01726 -0.187681 0.140932 0.00431856 5.47294C0.157319 9.71635 3.16532 11.8196 6.70732 14.8034C7.65432 15.6011 8.83232 16 10.0103 16C11.1913 16 12.3713 15.5991 13.3163 14.7955C16.8193 11.8156 19.7893 9.72635 19.9923 5.59889C20.2623 0.147929 13.9213 -2.04125 10.3873 2.31012Z" fill="white"/>
</svg>
