<svg width="20" height="20" viewBox="0 0 20 20" fill="none" xmlns="http://www.w3.org/2000/svg">
<g clip-path="url(#clip0)">
<path fill-rule="evenodd" clip-rule="evenodd" d="M4.24532 14.3429L5.65932 15.7569L1.41732 19.9999L0.00231934 18.5859L4.24532 14.3429ZM12.0023 13.9999C8.69432 13.9999 6.00232 11.3079 6.00232 7.99988C6.00232 4.69088 8.69432 1.99988 12.0023 1.99988C15.3113 1.99988 18.0023 4.69088 18.0023 7.99988C18.0023 11.3079 15.3113 13.9999 12.0023 13.9999ZM12.0023 -0.00012207C7.58432 -0.00012207 4.00232 3.58188 4.00232 7.99988C4.00232 12.4179 7.58432 15.9999 12.0023 15.9999C16.4213 15.9999 20.0023 12.4179 20.0023 7.99988C20.0023 3.58188 16.4213 -0.00012207 12.0023 -0.00012207Z" fill="white"/>
</g>
<defs>
<clipPath id="clip0">
<rect width="20" height="20" fill="white"/>
</clipPath>
</defs>
</svg>
